# xmcd CD database file
#
# Track frame offsets:
#	150
#	25541
#	47305
#	70882
#	92834
#	114358
#	133009
#	152674
#	174720
#	195120
#	218521
#	241912
#	266025
#	285932
#
# Disc length: 4121 seconds
#
# Revision: 0
# Processed by: cddbd v1.4PL0 Copyright (c) Steve Scherf et al.
# Submitted via: CD2WAV32(EN) R3.19
#
DISCID=ae10170e
DTITLE=Southern All Stars - BALLAD 3 ~the album of LOVE~ DISC2
DYEAR=1900
DGENRE=
TTITLE0=Ai No Kotodama ~Spirtual Message~
TTITLE1=BLUE HEAVEN
TTITLE2=Anatadake Wo ~Summer Heartbreak~
TTITLE3=MOON LIGHT LOVER
TTITLE4=Ai Naki Manago ~Before The Storm~
TTITLE5=Kokoro Wo Komete Hanataba Wo
TTITLE6=Rashamen No Uta
TTITLE7=SAUDADE ~Mafuyu No Shinkiro~
TTITLE8=Shounan SEPTEMBER
TTITLE9=TSUNAMI
TTITLE10=NatsuNo Hi No Drama
TTITLE11=LOVE AFFAIR ~Himitsu No Date~
TTITLE12=SEA SIDE WOMAN BLUES
TTITLE13=Suteki na Yume Wo Kanaemashou
EXTD=
EXTT0=
EXTT1=
EXTT2=
EXTT3=
EXTT4=
EXTT5=
EXTT6=
EXTT7=
EXTT8=
EXTT9=
EXTT10=
EXTT11=
EXTT12=
EXTT13=
PLAYORDER=
